<?xml version="1.0" encoding="utf-8"?>
<!-- Generator: Adobe Illustrator 16.0.0, SVG Export Plug-In . SVG Version: 6.00 Build 0)  -->
<!DOCTYPE svg PUBLIC "-//W3C//DTD SVG 1.1//EN" "http://www.w3.org/Graphics/SVG/1.1/DTD/svg11.dtd">
<svg version="1.1" id="圖層_1" xmlns="http://www.w3.org/2000/svg" xmlns:xlink="http://www.w3.org/1999/xlink" x="0px" y="0px"
	 width="22.721px" height="22.72px" viewBox="0 0 22.721 22.72" enable-background="new 0 0 22.721 22.72" xml:space="preserve">
<path fill="#999999" d="M22.195,21.292l-9.933-9.934l9.935-9.934c0.248-0.249,0.248-0.653,0-0.903v0.002
	c-0.25-0.25-0.653-0.25-0.902,0l-9.934,9.933L1.427,0.524c-0.249-0.25-0.653-0.25-0.903,0l0.002-0.002
	c-0.25,0.25-0.25,0.654,0,0.903l9.933,9.934l-9.933,9.934c-0.25,0.249-0.25,0.652,0,0.902H0.524c0.25,0.248,0.654,0.248,0.903-0.002
	l9.933-9.933l9.934,9.933c0.249,0.25,0.652,0.25,0.902,0.002l0,0C22.445,21.945,22.445,21.542,22.195,21.292z"/>
</svg>
