<?xml version="1.0" encoding="utf-8"?>
<!-- Generator: Adobe Illustrator 16.0.0, SVG Export Plug-In . SVG Version: 6.00 Build 0)  -->
<!DOCTYPE svg PUBLIC "-//W3C//DTD SVG 1.1//EN" "http://www.w3.org/Graphics/SVG/1.1/DTD/svg11.dtd">
<svg version="1.1" id="圖層_1" xmlns="http://www.w3.org/2000/svg" xmlns:xlink="http://www.w3.org/1999/xlink" x="0px" y="0px"
	 width="48px" height="48px" viewBox="0 0 48 48" enable-background="new 0 0 48 48" xml:space="preserve">
<path fill="#999999" d="M32.425,18.08l-0.336,0.336c-0.223,0.223-0.223,0.585,0,0.808l3.991,3.968H9.634
	c-0.315,0-0.571,0.256-0.571,0.571v0.475c0,0.315,0.256,0.571,0.571,0.571H36.08l-3.991,3.968c-0.223,0.223-0.223,0.585,0,0.808
	l0.336,0.336c0.223,0.223,0.584,0.223,0.808,0l5.539-5.517c0.223-0.223,0.223-0.584,0-0.807l-5.539-5.517
	C33.009,17.857,32.647,17.857,32.425,18.08z"/>
</svg>
