<?xml version="1.0" encoding="utf-8"?>
<!-- Generator: Adobe Illustrator 16.0.0, SVG Export Plug-In . SVG Version: 6.00 Build 0)  -->
<!DOCTYPE svg PUBLIC "-//W3C//DTD SVG 1.1//EN" "http://www.w3.org/Graphics/SVG/1.1/DTD/svg11.dtd">
<svg version="1.1" id="圖層_1" xmlns="http://www.w3.org/2000/svg" xmlns:xlink="http://www.w3.org/1999/xlink" x="0px" y="0px"
	 width="355.521px" height="12.283px" viewBox="0 0 355.521 12.283" enable-background="new 0 0 355.521 12.283"
	 xml:space="preserve">
<g>
	<path fill="#fff" d="M6.121,0.892C6.104,2.463,6.104,4.067,6.104,5.704v0.907c0,1.572,0,3.16,0.018,4.748l2.125,0.162v0.519h-5.6v-0.519
		l2.09-0.162C4.789,9.804,4.789,8.2,4.789,6.611V5.704c0-1.62,0-3.225-0.053-4.813H1.242L0.793,3.306H0l0.162-3.03h10.551l0.18,3.03
		h-0.791L9.633,0.892H6.121z"/>
	<path fill="#fff" d="M38.182,0.94c-0.018,1.556-0.018,3.144-0.018,4.764v0.907c0,1.572,0,3.16,0.018,4.748l1.926,0.162v0.519h-5.221v-0.519
		l1.908-0.162c0.037-1.539,0.037-3.159,0.037-5.137h-6.896c0,1.961,0,3.581,0.018,5.137l1.926,0.162v0.519h-5.221v-0.519
		l1.926-0.162c0.02-1.556,0.02-3.159,0.02-4.748V5.704c0-1.604,0-3.192-0.02-4.764l-1.926-0.162V0.275h5.221v0.503L29.953,0.94
		c-0.018,1.539-0.018,3.095-0.018,4.683h6.896c0-1.571,0-3.144-0.037-4.683l-1.908-0.162V0.275h5.221v0.503L38.182,0.94z"/>
	<path fill="#fff" d="M66.441,9.075l-0.162,2.965h-9.83v-0.519l1.926-0.162c0.018-1.556,0.018-3.159,0.018-4.748V5.704
		c0-1.604,0-3.192-0.018-4.764l-1.926-0.162V0.275h9.506l0.127,2.934h-0.793l-0.432-2.317h-5.096
		c-0.037,1.556-0.037,3.16-0.037,4.877h3.26l0.234-1.717h0.666v4.002h-0.666l-0.234-1.701h-3.26c0,1.848,0,3.468,0.037,5.04h5.438
		l0.432-2.317H66.441z"/>
	<path fill="#fff" d="M96.213,0.94c-0.035,1.556-0.035,3.144-0.035,4.764v0.907c0,1.572,0,3.16,0.035,4.748l1.928,0.162v0.519h-5.113v-0.519
		l1.818-0.162c0.035-1.556,0.018-3.144,0.035-4.667l0.018-5.039L90.254,12.04h-0.631L84.816,1.604l0.107,3.922v5.801l1.783,0.194
		v0.519h-4.303v-0.519l1.781-0.194V0.956l-1.854-0.178V0.275h3.186l4.682,10.193l4.557-10.193h3.385v0.503L96.213,0.94z"/>
	<path fill="#fff" d="M125.824,6.158c0,3.775-2.719,6.125-5.834,6.125c-3.098,0-5.834-2.236-5.834-6.125C114.156,2.35,116.91,0,119.99,0
		C123.068,0,125.824,2.269,125.824,6.158z M119.99,11.651c2.881,0,4.32-2.625,4.32-5.493s-1.439-5.51-4.32-5.51
		c-2.863,0-4.322,2.642-4.322,5.51S117.127,11.651,119.99,11.651z"/>
	<path fill="#fff" d="M147.061,0.275c2.756,0,4.178,1.135,4.178,2.82c0,1.264-0.918,2.397-3.098,2.787c2.666,0.275,3.764,1.475,3.764,2.981
		c0,1.669-1.439,3.176-4.896,3.176h-5.186v-0.519l1.926-0.162c0.018-1.571,0.018-3.159,0.018-4.764V5.688
		c0-1.589,0-3.177-0.018-4.748l-1.926-0.162V0.275H147.061z M145.117,0.859c-0.02,1.539-0.02,3.111-0.02,4.764h1.189
		c2.467,0,3.672-0.875,3.672-2.495c0-1.508-1.008-2.269-3.33-2.269H145.117z M146.754,11.44c2.467,0,3.781-0.924,3.781-2.593
		c0-1.701-1.242-2.625-4.123-2.625h-1.314c0,1.978,0,3.63,0.02,5.218H146.754z"/>
	<path fill="#fff" d="M171.02,0.94c-0.037,1.556-0.037,3.144-0.037,4.764v0.907c0,1.572,0,3.16,0.037,4.748l1.908,0.162v0.519h-5.221v-0.519
		l1.926-0.162c0.018-1.556,0.018-3.159,0.018-4.748V5.704c0-1.604,0-3.192-0.018-4.764l-1.926-0.162V0.275h5.221v0.503L171.02,0.94z
		"/>
	<path fill="#fff" d="M201.766,0.778l-1.729,0.194l-0.018,6.466c0,3.354-1.711,4.845-4.52,4.845c-2.791,0-4.592-1.361-4.592-4.65V5.736
		c0-1.604,0-3.225-0.035-4.813l-1.711-0.146V0.275h5.131v0.503l-2.035,0.178c-0.035,1.556-0.035,3.16-0.035,4.78v1.556
		c0,3.047,1.35,4.101,3.457,4.101c2.467,0,3.619-1.216,3.619-4.392V0.988l-2.18-0.21V0.275h4.646V0.778z"/>
	<path fill="#fff" d="M222.139,5.526c2.701,0.956,3.564,1.912,3.564,3.516c0,2.01-1.873,3.241-4.465,3.241c-1.477,0-2.881-0.438-3.709-0.924
		l0.107-2.382h0.793l0.359,2.123c0.756,0.389,1.422,0.534,2.395,0.534c1.963,0,3.332-0.794,3.332-2.365
		c0-1.199-0.703-1.799-2.701-2.544l-0.738-0.26c-2.035-0.713-3.223-1.734-3.223-3.37c0-2.026,1.854-3.096,4.105-3.096
		c1.35,0,2.305,0.356,3.15,0.892l-0.09,2.236h-0.793l-0.377-2.042c-0.596-0.324-1.172-0.438-1.91-0.438
		c-1.674,0-2.898,0.729-2.898,2.171c0,1.216,0.865,1.912,2.322,2.431L222.139,5.526z"/>
	<path fill="#fff" d="M253.389,11.521v0.519h-5.096v-0.519l2.018-0.162l-1.244-3.37h-4.662l-1.207,3.354l1.855,0.178v0.519h-4.195v-0.519
		l1.584-0.162L246.6,0.162h0.865l4.23,11.214L253.389,11.521z M248.852,7.422l-2.143-5.785l-2.09,5.785H248.852z"/>
	<path fill="#fff" d="M273.348,0.892c-0.018,1.571-0.018,3.176-0.018,4.813v0.907c0,1.572,0,3.16,0.018,4.748l2.125,0.162v0.519h-5.6v-0.519
		l2.09-0.162c0.053-1.556,0.053-3.159,0.053-4.748V5.704c0-1.62,0-3.225-0.053-4.813h-3.494l-0.449,2.414h-0.793l0.162-3.03h10.551
		l0.18,3.03h-0.791l-0.469-2.414H273.348z"/>
	<path fill="#fff" d="M297.197,0.94c-0.035,1.556-0.035,3.144-0.035,4.764v0.907c0,1.572,0,3.16,0.035,4.748l1.908,0.162v0.519h-5.221v-0.519
		l1.926-0.162c0.02-1.556,0.02-3.159,0.02-4.748V5.704c0-1.604,0-3.192-0.02-4.764l-1.926-0.162V0.275h5.221v0.503L297.197,0.94z"/>
	<path fill="#fff" d="M326.793,6.158c0,3.775-2.719,6.125-5.834,6.125c-3.098,0-5.834-2.236-5.834-6.125c0-3.809,2.754-6.158,5.834-6.158
		C324.037,0,326.793,2.269,326.793,6.158z M320.959,11.651c2.881,0,4.32-2.625,4.32-5.493s-1.439-5.51-4.32-5.51
		c-2.863,0-4.322,2.642-4.322,5.51S318.096,11.651,320.959,11.651z"/>
	<path fill="#fff" d="M355.521,0.778l-1.693,0.194l-0.018,11.197h-0.559l-8.031-10.192l0.037,9.35l2.105,0.194v0.519h-4.555v-0.519l1.693-0.178
		l0.035-10.242l-0.145-0.178l-1.584-0.146V0.275h2.701l7.58,9.69l-0.018-8.993l-2.107-0.194V0.275h4.557V0.778z"/>
</g>
</svg>
