<?xml version="1.0" encoding="utf-8"?>
<!-- Generator: Adobe Illustrator 16.0.0, SVG Export Plug-In . SVG Version: 6.00 Build 0)  -->
<!DOCTYPE svg PUBLIC "-//W3C//DTD SVG 1.1//EN" "http://www.w3.org/Graphics/SVG/1.1/DTD/svg11.dtd">
<svg version="1.1" id="圖層_1" focusable="false" xmlns="http://www.w3.org/2000/svg" xmlns:xlink="http://www.w3.org/1999/xlink"
	 x="0px" y="0px" width="566.929px" height="527.244px" viewBox="136.083 -3.379 566.929 527.244"
	 enable-background="new 136.083 -3.379 566.929 527.244" xml:space="preserve">
<path d="M274.101,523.865H166.113V169.807h107.988V523.865z M220.049,122.371c-34.53,0-62.539-28.602-62.539-63.133
	c0.005-34.539,28.009-62.535,62.549-62.53c34.532,0.005,62.525,27.998,62.53,62.53C282.589,93.769,254.568,122.371,220.049,122.371z
	 M678.263,523.865H570.509v-175.59c0-40.344-0.813-92.083-56.145-92.083c-56.145,0-64.748,43.833-64.748,89.177v178.496H341.744
	V169.807h103.57v47.437h1.512c14.416-27.323,49.634-56.156,102.174-56.156c109.29,0,129.381,71.968,129.381,165.446v197.331H678.263
	z"/>
</svg>
