<?xml version="1.0" encoding="utf-8"?>
<!-- Generator: Adobe Illustrator 16.0.0, SVG Export Plug-In . SVG Version: 6.00 Build 0)  -->
<!DOCTYPE svg PUBLIC "-//W3C//DTD SVG 1.1//EN" "http://www.w3.org/Graphics/SVG/1.1/DTD/svg11.dtd">
<svg version="1.1" id="圖層_1" xmlns="http://www.w3.org/2000/svg" xmlns:xlink="http://www.w3.org/1999/xlink" x="0px" y="0px"
	 width="80.789px" height="77.212px" viewBox="0 0 80.789 77.212" enable-background="new 0 0 80.789 77.212" xml:space="preserve">
<g>
	<g>
		<g>
			<path fill="#333333" d="M44.985,40.727v-7.77c0-0.385,0.037-2.053,0.037-3.28h-0.037l-3.702,11.05h-1.759l-3.702-11.032h-0.037
				c0,1.209,0.037,2.877,0.037,3.262v7.77H34.1V27.569h2.547l3.757,11.124h0.037l3.738-11.124h2.529v13.158H44.985z"/>
		</g>
		<g>
			<path fill="#333333" d="M40.395,45.944c3.061,0,4.454,2.584,4.454,5.058c0,2.475-1.393,5.059-4.454,5.059
				c-3.061,0-4.453-2.584-4.453-5.059C35.942,48.528,37.334,45.944,40.395,45.944z M40.395,54.668c2.309,0,2.786-2.383,2.786-3.666
				c0-1.282-0.477-3.664-2.786-3.664c-2.31,0-2.786,2.382-2.786,3.664C37.609,52.285,38.085,54.668,40.395,54.668z M39.753,44.734
				h-1.668v-1.869h1.668V44.734z M42.722,44.734h-1.667v-1.869h1.667V44.734z"/>
		</g>
	</g>
	<g>
		<path fill="#808080" d="M1.921,67.547c-0.136,0-0.268-0.07-0.341-0.195c-0.11-0.188-0.046-0.431,0.142-0.54l11.145-6.5
			c0.188-0.109,0.43-0.045,0.54,0.142c0.11,0.188,0.046,0.431-0.142,0.54l-11.145,6.5C2.057,67.529,1.989,67.547,1.921,67.547z"/>
		<path fill="#808080" d="M78.869,67.547c-0.067,0-0.137-0.018-0.199-0.054l-11.146-6.5c-0.188-0.109-0.251-0.352-0.142-0.54
			c0.11-0.187,0.352-0.25,0.54-0.142l11.146,6.5c0.188,0.109,0.251,0.352,0.142,0.54C79.137,67.477,79.005,67.547,78.869,67.547z"/>
		<path fill="#808080" d="M40.396,13.767c-0.218,0-0.395-0.177-0.395-0.395V0.47c0-0.218,0.177-0.395,0.395-0.395
			S40.79,0.252,40.79,0.47v12.902C40.79,13.59,40.613,13.767,40.396,13.767z"/>
		<path fill="#808080" d="M40.396,10.363c-0.111,0-0.222-0.047-0.3-0.139c-0.142-0.166-0.122-0.415,0.044-0.556l7.768-6.615
			c0.166-0.141,0.414-0.122,0.557,0.044c0.141,0.166,0.121,0.415-0.045,0.556l-7.768,6.615
			C40.577,10.332,40.486,10.363,40.396,10.363z"/>
		<path fill="#808080" d="M40.396,10.363c-0.091,0-0.182-0.031-0.256-0.094l-7.77-6.615c-0.166-0.141-0.186-0.39-0.044-0.556
			c0.143-0.167,0.391-0.185,0.556-0.044l7.77,6.615c0.166,0.141,0.186,0.39,0.044,0.556C40.618,10.316,40.507,10.363,40.396,10.363z
			"/>
		<path fill="#808080" d="M72.56,72.823c-0.186,0-0.351-0.131-0.388-0.319l-1.955-10.068c-0.041-0.214,0.099-0.421,0.313-0.463
			c0.219-0.044,0.421,0.099,0.463,0.313l1.955,10.068c0.041,0.214-0.099,0.421-0.313,0.463
			C72.609,72.821,72.584,72.823,72.56,72.823z"/>
		<path fill="#808080" d="M70.604,62.755c-0.164,0-0.316-0.103-0.373-0.267c-0.071-0.206,0.039-0.43,0.245-0.501l9.709-3.341
			c0.203-0.069,0.43,0.038,0.501,0.245c0.071,0.206-0.039,0.43-0.245,0.501l-9.709,3.341C70.69,62.748,70.647,62.755,70.604,62.755z
			"/>
		<path fill="#808080" d="M8.23,72.823c-0.025,0-0.05-0.002-0.076-0.007c-0.214-0.042-0.354-0.249-0.312-0.463l1.956-10.068
			c0.042-0.214,0.247-0.355,0.462-0.313c0.214,0.042,0.354,0.249,0.312,0.463L8.617,72.504C8.58,72.692,8.415,72.823,8.23,72.823z"
			/>
		<path fill="#808080" d="M10.186,62.755c-0.042,0-0.086-0.007-0.128-0.021l-9.71-3.341c-0.206-0.07-0.315-0.295-0.245-0.501
			c0.071-0.207,0.294-0.317,0.501-0.245l9.71,3.341c0.206,0.071,0.315,0.295,0.245,0.501C10.502,62.652,10.349,62.755,10.186,62.755
			z"/>
		<path fill="#808080" d="M24.429,77.211c-0.289,0-0.576-0.004-0.862-0.012c-0.95-0.028-1.904-0.101-2.835-0.216
			c-0.943-0.116-1.903-0.279-2.853-0.484c-0.904-0.194-1.821-0.432-2.724-0.705c-0.875-0.266-1.753-0.569-2.61-0.905
			c-0.823-0.32-1.658-0.679-2.552-1.096c-0.955-0.445-1.823-0.882-2.655-1.335c-1.082-0.588-1.972-1.137-2.722-1.676
			c-0.993-0.713-1.743-1.419-2.293-2.159c-0.636-0.852-1.003-1.767-1.092-2.721c-0.087-0.937,0.089-1.939,0.522-2.979
			c0.36-0.864,0.901-1.762,1.61-2.668c0.303-0.39,0.639-0.78,1.024-1.191c0.351-0.373,0.712-0.731,1.087-1.079
			c0.645-0.596,1.353-1.193,2.229-1.881c0.499-0.391,1.001-0.774,1.504-1.158l0.714-0.547c1.552-1.196,2.824-2.232,4.39-3.578
			c0.361-0.31,0.719-0.62,1.077-0.933l1.059-0.932c0.686-0.608,1.369-1.223,2.043-1.846c0.794-0.733,1.489-1.402,2.125-2.046
			c0.71-0.715,1.354-1.405,1.971-2.111c1.275-1.46,2.386-2.934,3.397-4.503c1.011-1.571,1.881-3.177,2.66-4.908
			c0.776-1.72,1.42-3.481,1.97-5.382c0.252-0.871,0.479-1.748,0.691-2.63c0.218-0.908,0.427-1.819,0.63-2.729
			c0.215-0.946,0.429-1.889,0.64-2.833c0.214-0.958,0.424-1.916,0.608-2.879c0.19-0.991,0.337-1.918,0.448-2.835
			c0.116-0.972,0.176-1.776,0.249-2.749c0.066-0.868,0.145-1.906,0.302-2.902c0.175-1.112,0.432-2.104,0.783-3.034
			c0.406-1.076,0.927-2.042,1.55-2.871c0.694-0.923,1.481-1.624,2.339-2.084C39.75,0.132,40.717-0.074,41.733,0
			c0.91,0.066,1.869,0.351,2.932,0.871c1.008,0.493,1.97,1.128,2.695,1.627c0.412,0.283,0.82,0.573,1.226,0.865l1.15,0.833
			c0.738,0.537,1.438,1.046,2.131,1.565c0.801,0.603,1.441,1.109,2.018,1.595c0.734,0.621,1.441,1.275,2.102,1.946
			c0.692,0.704,1.349,1.442,1.952,2.194c0.611,0.763,1.181,1.556,1.694,2.357c0.507,0.79,0.982,1.621,1.415,2.47
			c0.819,1.61,1.547,3.398,2.163,5.314c0.589,1.836,1.062,3.736,1.442,5.809c0.333,1.811,0.583,3.667,0.763,5.675
			c0.166,1.834,0.264,3.707,0.311,5.894c0.03,1.397,0.037,2.793,0.043,4.191l0.011,1.793c0.014,2.011,0.048,3.47,0.106,5.478
			c0.006,0.218-0.165,0.399-0.383,0.406c-0.212-0.004-0.399-0.165-0.406-0.383c-0.059-2.016-0.093-3.479-0.106-5.495L64.98,43.21
			c-0.006-1.393-0.013-2.786-0.043-4.178c-0.046-2.169-0.144-4.024-0.307-5.84c-0.179-1.982-0.425-3.815-0.753-5.603
			c-0.375-2.039-0.84-3.907-1.419-5.71c-0.603-1.876-1.314-3.625-2.114-5.197c-0.421-0.826-0.884-1.634-1.376-2.402
			c-0.499-0.778-1.053-1.548-1.646-2.289c-0.587-0.731-1.227-1.45-1.899-2.135c-0.643-0.653-1.332-1.292-2.049-1.897
			c-0.563-0.476-1.193-0.974-1.981-1.566c-0.689-0.516-1.386-1.023-2.084-1.531l-1.185-0.857c-0.401-0.289-0.804-0.576-1.211-0.855
			C46.21,2.665,45.28,2.049,44.319,1.58c-0.971-0.475-1.836-0.734-2.643-0.792C40.798,0.723,40,0.894,39.229,1.307
			c-0.756,0.406-1.456,1.033-2.081,1.863c-0.578,0.769-1.063,1.669-1.442,2.676c-0.333,0.879-0.575,1.82-0.742,2.878
			c-0.141,0.894-0.213,1.763-0.292,2.806c-0.076,1.017-0.137,1.832-0.255,2.816c-0.113,0.936-0.262,1.881-0.457,2.89
			c-0.185,0.972-0.397,1.937-0.612,2.903c-0.211,0.945-0.425,1.89-0.64,2.835c-0.204,0.913-0.414,1.828-0.633,2.74
			c-0.215,0.894-0.445,1.782-0.701,2.665c-0.56,1.938-1.217,3.732-2.008,5.487c-0.795,1.768-1.684,3.407-2.717,5.011
			c-1.032,1.603-2.166,3.106-3.466,4.596c-0.627,0.718-1.283,1.421-2.005,2.147c-0.645,0.651-1.348,1.329-2.151,2.07
			c-0.679,0.627-1.365,1.243-2.055,1.856l-1.063,0.935c-0.359,0.314-0.719,0.627-1.082,0.938c-1.577,1.354-2.859,2.399-4.423,3.604
			l-0.716,0.549c-0.5,0.382-1,0.765-1.496,1.152c-0.858,0.674-1.551,1.258-2.18,1.839c-0.361,0.335-0.71,0.68-1.047,1.04
			c-0.369,0.394-0.689,0.766-0.978,1.137c-0.666,0.851-1.171,1.687-1.504,2.485c-0.383,0.921-0.54,1.797-0.464,2.604
			c0.076,0.817,0.383,1.577,0.939,2.321c0.501,0.675,1.195,1.325,2.121,1.99c0.723,0.52,1.586,1.051,2.638,1.623
			c0.818,0.445,1.672,0.875,2.611,1.313c0.878,0.409,1.698,0.762,2.505,1.076c0.839,0.328,1.697,0.625,2.552,0.884
			c0.882,0.268,1.778,0.499,2.661,0.689c0.928,0.2,1.864,0.359,2.784,0.473c0.907,0.112,1.836,0.184,2.761,0.21
			c0.906,0.026,1.831,0.01,2.746-0.048c0.904-0.057,1.833-0.155,2.762-0.292c3.539-0.52,7.183-1.609,11.141-3.33
			c0.199-0.088,0.432,0.004,0.519,0.204c0.087,0.199-0.004,0.432-0.205,0.519c-4.022,1.75-7.732,2.858-11.34,3.389
			c-0.95,0.14-1.901,0.24-2.827,0.298C25.735,77.19,25.08,77.211,24.429,77.211z"/>
		<path fill="#808080" d="M57.706,64.238c-0.14,0-0.275-0.074-0.347-0.206c-0.104-0.191-0.033-0.431,0.158-0.535
			c1.878-1.021,3.846-2.021,5.69-2.891c0.528-0.249,1.059-0.493,1.595-0.729c0.253-0.111,0.506-0.22,0.76-0.325
			c-0.044-0.314-0.079-0.633-0.108-0.946c-0.057-0.578-0.095-1.157-0.129-1.738c-0.06-1.063-0.099-2.127-0.132-3.19
			c-0.034-1.059-0.065-2.118-0.096-3.177c-0.006-0.218,0.165-0.399,0.383-0.406c0.219,0,0.4,0.165,0.406,0.383
			c0.03,1.059,0.062,2.116,0.096,3.175c0.033,1.058,0.072,2.115,0.13,3.171c0.034,0.569,0.072,1.139,0.127,1.708
			c0.022,0.24,0.049,0.483,0.08,0.726c0.167-0.062,0.336-0.119,0.507-0.171c0.184-0.056,0.366-0.103,0.557-0.133
			c0.131-0.021,0.301-0.04,0.48-0.009c0.185,0.032,0.332,0.11,0.44,0.234c0.105,0.116,0.168,0.274,0.177,0.451
			c0.016,0.151-0.017,0.313-0.042,0.418c-0.079,0.331-0.237,0.657-0.356,0.871c-0.11,0.201-0.29,0.487-0.511,0.711
			c-0.09,0.087-0.204,0.188-0.345,0.261c-0.155,0.079-0.309,0.116-0.468,0.094c-0.157-0.013-0.313-0.085-0.451-0.213
			c-0.112-0.104-0.208-0.239-0.294-0.414c-0.09-0.182-0.151-0.369-0.206-0.562c-0.042-0.146-0.078-0.294-0.109-0.444
			c-0.193,0.081-0.386,0.164-0.577,0.249c-0.53,0.232-1.055,0.475-1.577,0.721c-1.83,0.863-3.784,1.855-5.649,2.87
			C57.835,64.223,57.771,64.238,57.706,64.238z M66.443,60.052c0.033,0.177,0.072,0.353,0.123,0.525
			c0.042,0.15,0.088,0.293,0.155,0.431c0.042,0.085,0.084,0.147,0.123,0.185c0.071-0.03,0.132-0.086,0.173-0.125
			c0.117-0.119,0.249-0.306,0.374-0.531c0.135-0.243,0.233-0.481,0.279-0.673c0.02-0.08,0.027-0.139,0.023-0.176
			c-0.03,0.022-0.125,0.034-0.189,0.044c-0.152,0.024-0.3,0.063-0.449,0.109C66.848,59.903,66.646,59.975,66.443,60.052z"/>
		<path fill="#808080" d="M40.396,73.496c-0.053,0-0.106-0.011-0.157-0.032c-3.246-1.41-6.407-3.115-8.798-4.443
			c-1.432-0.796-2.854-1.609-4.275-2.426l-2.127-1.214c-0.711-0.403-1.425-0.801-2.143-1.19c-0.192-0.104-0.263-0.344-0.159-0.535
			c0.104-0.191,0.343-0.262,0.535-0.158c0.722,0.392,1.44,0.791,2.155,1.197l2.131,1.216c1.419,0.815,2.838,1.627,4.267,2.421
			c2.375,1.319,5.515,3.013,8.729,4.408c0.2,0.087,0.292,0.319,0.205,0.52C40.693,73.407,40.548,73.496,40.396,73.496z"/>
		<path fill="#808080" d="M23.083,64.238c-0.063,0-0.128-0.016-0.188-0.048c-1.846-1.005-3.799-1.998-5.648-2.871
			c-0.522-0.245-1.048-0.487-1.577-0.72c-0.192-0.085-0.385-0.169-0.579-0.25c-0.031,0.149-0.066,0.299-0.108,0.445
			c-0.054,0.192-0.117,0.377-0.203,0.557c-0.089,0.18-0.184,0.314-0.294,0.417c-0.146,0.131-0.3,0.202-0.463,0.216
			c-0.145,0.018-0.301-0.015-0.457-0.095c-0.114-0.059-0.226-0.143-0.342-0.257c-0.229-0.23-0.406-0.517-0.516-0.717
			c-0.119-0.215-0.279-0.543-0.357-0.871c-0.038-0.156-0.052-0.297-0.042-0.426c0.014-0.174,0.073-0.322,0.176-0.44
			c0.111-0.126,0.259-0.203,0.44-0.235c0.183-0.031,0.362-0.01,0.481,0.009c0.192,0.03,0.375,0.077,0.558,0.134
			c0.171,0.051,0.339,0.108,0.506,0.17c0.031-0.242,0.057-0.485,0.081-0.726c0.055-0.569,0.093-1.138,0.125-1.709
			c0.061-1.056,0.098-2.111,0.132-3.167l0.096-3.178c0.006-0.218,0.168-0.388,0.406-0.383c0.218,0.007,0.389,0.188,0.383,0.406
			l-0.096,3.18c-0.036,1.063-0.073,2.125-0.133,3.187c-0.033,0.581-0.071,1.161-0.127,1.74c-0.03,0.313-0.065,0.63-0.109,0.945
			c0.255,0.104,0.508,0.214,0.76,0.325c0.535,0.236,1.067,0.48,1.595,0.729c1.863,0.88,3.83,1.88,5.688,2.892
			c0.191,0.104,0.262,0.344,0.158,0.535C23.358,64.164,23.223,64.238,23.083,64.238z M13.067,59.72c0.026,0,0.029,0.055,0.05,0.142
			c0.045,0.189,0.145,0.428,0.281,0.674c0.122,0.222,0.257,0.412,0.382,0.539c0.054,0.054,0.104,0.093,0.146,0.114
			c0.06-0.033,0.101-0.096,0.144-0.182c0.064-0.134,0.112-0.277,0.153-0.426c0.05-0.175,0.089-0.352,0.123-0.53
			c-0.202-0.077-0.404-0.147-0.611-0.21c-0.15-0.046-0.297-0.085-0.452-0.109C13.19,59.718,13.116,59.715,13.067,59.72z"/>
		<path fill="#808080" d="M65.492,50.883c-0.092,0-0.184-0.031-0.259-0.097c-0.473-0.41-0.943-0.823-1.412-1.239
			c-0.459-0.407-0.918-0.816-1.372-1.229c-1.029-0.935-1.858-1.719-2.608-2.468c-0.898-0.895-1.747-1.808-2.524-2.714
			c-0.799-0.936-1.553-1.903-2.241-2.877c-1.424-2.013-2.615-4.1-3.644-6.379c-0.496-1.101-0.949-2.242-1.347-3.391
			c-0.382-1.108-0.729-2.268-1.061-3.544c-0.301-1.154-0.567-2.317-0.832-3.481l-0.816-3.63c-0.255-1.142-0.521-2.375-0.734-3.651
			c-0.197-1.165-0.329-2.238-0.441-3.586l-0.064-0.847c-0.063-0.862-0.13-1.753-0.248-2.621c-0.188-1.36-0.478-2.491-0.91-3.559
			c-0.494-1.218-1.159-2.289-1.923-3.096c-0.832-0.877-1.753-1.421-2.736-1.616c-0.214-0.042-0.353-0.25-0.311-0.464
			c0.043-0.214,0.25-0.35,0.464-0.311c1.147,0.228,2.208,0.849,3.155,1.847c0.832,0.878,1.552,2.034,2.081,3.343
			c0.458,1.13,0.764,2.32,0.961,3.748c0.122,0.892,0.189,1.795,0.254,2.669l0.064,0.841c0.11,1.342,0.236,2.362,0.432,3.52
			c0.212,1.258,0.475,2.479,0.727,3.611l0.816,3.627c0.263,1.155,0.527,2.31,0.826,3.457c0.326,1.257,0.667,2.397,1.043,3.485
			c0.39,1.126,0.834,2.245,1.319,3.324c1.008,2.233,2.175,4.277,3.569,6.249c0.675,0.954,1.414,1.902,2.196,2.819
			c0.764,0.89,1.599,1.787,2.481,2.668c0.742,0.739,1.563,1.516,2.583,2.442c0.452,0.411,0.909,0.818,1.364,1.224
			c0.467,0.414,0.936,0.825,1.406,1.233c0.164,0.143,0.182,0.392,0.039,0.557C65.712,50.837,65.603,50.883,65.492,50.883z"/>
		<path fill="#808080" d="M56.349,77.212c-0.131,0-0.262-0.001-0.393-0.003c-2.601-0.036-5.311-0.402-8.054-1.088
			c-2.45-0.611-4.957-1.48-7.664-2.658c-0.2-0.086-0.292-0.318-0.205-0.519c0.086-0.2,0.318-0.292,0.519-0.204
			c2.667,1.159,5.134,2.015,7.541,2.615c2.685,0.671,5.333,1.029,7.873,1.064c1.293,0.02,2.619-0.053,3.921-0.21
			c1.312-0.159,2.604-0.4,3.952-0.738c0.646-0.162,1.285-0.343,1.92-0.543c0.627-0.197,1.245-0.412,1.859-0.645
			c1.173-0.443,2.373-0.967,3.671-1.6c1.35-0.66,2.521-1.303,3.479-1.908c1.352-0.852,2.325-1.672,2.979-2.508
			c0.801-1.025,1.137-2.101,1.024-3.286c-0.057-0.586-0.224-1.203-0.495-1.834c-0.253-0.589-0.604-1.205-1.042-1.83
			c-0.379-0.539-0.802-1.06-1.293-1.592c-0.434-0.471-0.904-0.933-1.438-1.414c-0.956-0.861-1.964-1.644-2.999-2.435l-0.208-0.159
			c-1.058-0.81-1.879-1.438-2.944-2.303c-0.942-0.763-1.934-1.599-3.118-2.63c-0.165-0.144-0.182-0.393-0.039-0.557
			c0.144-0.164,0.394-0.181,0.557-0.039c1.178,1.025,2.162,1.855,3.098,2.612c1.06,0.86,1.875,1.485,2.927,2.289l0.208,0.159
			c1.048,0.802,2.07,1.594,3.048,2.476c0.553,0.497,1.04,0.977,1.49,1.465c0.515,0.559,0.959,1.105,1.358,1.674
			c0.47,0.67,0.847,1.333,1.121,1.971c0.304,0.706,0.491,1.403,0.556,2.071c0.132,1.396-0.257,2.655-1.188,3.848
			c-0.71,0.908-1.749,1.788-3.178,2.689c-0.982,0.62-2.178,1.276-3.555,1.949c-1.319,0.644-2.542,1.177-3.737,1.629
			c-0.628,0.238-1.26,0.457-1.901,0.658c-0.649,0.206-1.305,0.391-1.966,0.557c-1.38,0.346-2.704,0.593-4.049,0.756
			C58.777,77.139,57.557,77.212,56.349,77.212z"/>
		<path fill="#808080" d="M16.021,31.196c-0.017,0-0.033-0.001-0.05-0.003c-0.216-0.027-0.369-0.225-0.342-0.441
			c0.479-3.812,1.242-7.163,2.332-10.245c0.299-0.845,0.627-1.676,0.976-2.472c0.355-0.815,0.741-1.609,1.147-2.359
			c0.847-1.573,1.811-3.01,2.944-4.396c1.11-1.356,2.32-2.59,3.7-3.771c0.329-0.284,0.667-0.562,1.009-0.832
			c0.335-0.268,0.676-0.531,1.021-0.791c0.689-0.52,1.388-1.029,2.085-1.537l0.132-0.096c0.654-0.476,1.307-0.951,1.968-1.417
			c0.625-0.439,1.45-1.007,2.295-1.492c0.938-0.541,1.78-0.91,2.572-1.126c0.948-0.257,1.819-0.301,2.662-0.135
			c0.214,0.042,0.353,0.25,0.311,0.464C40.74,0.761,40.534,0.9,40.319,0.857c-0.721-0.143-1.475-0.104-2.301,0.122
			c-0.726,0.198-1.506,0.542-2.386,1.048c-0.818,0.47-1.624,1.024-2.235,1.454c-0.657,0.462-1.307,0.936-1.958,1.409l-0.083,0.06
			c-0.743,0.542-1.438,1.048-2.124,1.565c-0.339,0.255-0.674,0.514-1.005,0.778c-0.335,0.265-0.664,0.536-0.986,0.813
			c-1.345,1.151-2.523,2.353-3.604,3.672c-1.102,1.345-2.037,2.742-2.86,4.27c-0.396,0.731-0.771,1.505-1.118,2.301
			c-0.341,0.779-0.662,1.593-0.955,2.419c-1.071,3.028-1.821,6.326-2.293,10.081C16.387,31.05,16.217,31.196,16.021,31.196z"/>
		<path fill="#808080" d="M16.021,31.196c-0.122,0-0.242-0.056-0.319-0.162c-0.128-0.176-0.09-0.423,0.086-0.551
			c0.669-0.488,1.349-0.963,2.035-1.426c0.686-0.462,1.381-0.914,2.082-1.355c0.696-0.441,1.401-0.873,2.108-1.301
			c0.708-0.427,1.418-0.847,2.13-1.266c0.98-0.575,1.938-1.129,2.886-1.677c1.912-1.106,3.718-2.151,5.634-3.322
			c0.186-0.114,0.429-0.055,0.542,0.131c0.114,0.186,0.055,0.429-0.131,0.542c-1.924,1.176-3.734,2.224-5.65,3.332
			c-0.947,0.548-1.902,1.101-2.881,1.675c-0.709,0.417-1.417,0.836-2.122,1.261c-0.701,0.424-1.402,0.854-2.094,1.292
			c-0.694,0.438-1.382,0.884-2.062,1.343c-0.679,0.457-1.351,0.927-2.012,1.41C16.183,31.171,16.102,31.196,16.021,31.196z"/>
		<path fill="#808080" d="M47.923,20.865c-0.07,0-0.142-0.019-0.206-0.058c-1.17-0.715-3.422-2.115-5.361-3.452
			c-0.481-0.332-0.96-0.669-1.43-1.019c-0.179-0.133-0.356-0.268-0.531-0.405c-0.175,0.137-0.353,0.271-0.531,0.405
			c-0.47,0.35-0.947,0.688-1.428,1.019c-1.955,1.346-4.199,2.74-5.362,3.452c-0.186,0.116-0.429,0.056-0.542-0.13
			s-0.055-0.429,0.13-0.542c1.157-0.708,3.387-2.093,5.326-3.429c0.474-0.326,0.942-0.658,1.404-1.002
			c0.126-0.094,0.252-0.189,0.378-0.286c-0.18-0.157-0.356-0.319-0.522-0.492c-0.132-0.139-0.265-0.29-0.37-0.449
			c-0.076-0.117-0.165-0.271-0.2-0.453c-0.035-0.175-0.011-0.347,0.069-0.495c0.075-0.134,0.189-0.241,0.343-0.323
			c0.109-0.059,0.241-0.106,0.401-0.142c0.313-0.072,0.665-0.087,0.904-0.087c0.239,0,0.59,0.015,0.904,0.087
			c0.159,0.036,0.292,0.083,0.403,0.144c0.152,0.082,0.267,0.19,0.339,0.323c0.054,0.095,0.115,0.267,0.07,0.496
			c-0.031,0.149-0.097,0.296-0.202,0.454c-0.104,0.158-0.237,0.309-0.368,0.446C41.376,15.1,41.2,15.26,41.02,15.418
			c0.125,0.096,0.251,0.191,0.377,0.286c0.461,0.343,0.932,0.675,1.405,1.002c1.925,1.326,4.163,2.717,5.326,3.428
			c0.186,0.113,0.244,0.356,0.131,0.542C48.186,20.798,48.056,20.865,47.923,20.865z M40.396,13.767
			c-0.285,0-0.538,0.023-0.729,0.067c-0.087,0.02-0.155,0.042-0.202,0.067c-0.004,0.01,0.024,0.067,0.074,0.144
			c0.078,0.118,0.18,0.231,0.28,0.336c0.151,0.156,0.312,0.304,0.477,0.447c0.033,0.029,0.067,0.058,0.101,0.086
			c0.033-0.028,0.066-0.057,0.099-0.085c0.164-0.144,0.326-0.29,0.478-0.449c0.1-0.104,0.202-0.217,0.282-0.338
			c0.06-0.09,0.08-0.144,0.086-0.174c-0.058,0.009-0.127-0.015-0.214-0.035C40.881,13.778,40.594,13.767,40.396,13.767z"/>
		<path fill="#808080" d="M78.836,67.594c-0.092,0-0.184-0.031-0.259-0.097c-0.164-0.143-0.182-0.392-0.039-0.557
			c0.474-0.546,0.819-1.218,1.057-2.056c0.21-0.737,0.334-1.596,0.381-2.625c0.036-0.756,0.032-1.63-0.012-2.672
			c-0.034-0.844-0.089-1.686-0.158-2.528c-0.163-2.05-0.382-3.637-0.709-5.146c-0.356-1.656-0.867-3.325-1.517-4.959
			c-0.654-1.642-1.411-3.159-2.314-4.64c-0.443-0.727-0.925-1.446-1.429-2.139c-0.499-0.686-1.043-1.377-1.619-2.055
			c-2.099-2.468-4.611-4.758-7.68-7.001c-0.177-0.128-0.215-0.375-0.086-0.551c0.129-0.177,0.375-0.214,0.551-0.085
			c3.12,2.28,5.677,4.611,7.816,7.126c0.588,0.693,1.146,1.4,1.656,2.102c0.517,0.71,1.009,1.447,1.464,2.192
			c0.927,1.519,1.703,3.075,2.373,4.76c0.666,1.674,1.189,3.385,1.556,5.084c0.334,1.545,0.558,3.164,0.725,5.249
			c0.069,0.852,0.124,1.705,0.16,2.559c0.044,1.066,0.048,1.963,0.012,2.741c-0.05,1.091-0.185,2.008-0.41,2.804
			c-0.271,0.952-0.67,1.723-1.221,2.358C79.056,67.548,78.946,67.594,78.836,67.594z"/>
		<path fill="#808080" d="M73.944,69.427c-0.083,0-0.166-0.001-0.25-0.003c-0.898-0.019-1.863-0.141-2.867-0.36
			c-0.863-0.19-1.763-0.454-2.747-0.809c-0.896-0.323-1.793-0.693-2.634-1.045l-0.438-0.184c-0.733-0.307-1.375-0.574-2.158-0.887
			c-1.757-0.699-3.378-1.274-5.271-1.923c-0.206-0.07-0.315-0.295-0.245-0.501c0.069-0.207,0.289-0.317,0.501-0.245
			c1.904,0.651,3.536,1.23,5.308,1.937c0.787,0.313,1.433,0.583,2.171,0.892l0.438,0.183c0.832,0.348,1.718,0.714,2.597,1.031
			c0.952,0.342,1.818,0.598,2.649,0.779c0.953,0.21,1.866,0.325,2.714,0.343c1.004,0.029,1.885-0.091,2.657-0.331
			c0.894-0.279,1.624-0.738,2.171-1.364c0.143-0.163,0.393-0.181,0.557-0.037c0.164,0.143,0.181,0.393,0.037,0.557
			c-0.643,0.736-1.494,1.274-2.529,1.599C75.815,69.303,74.922,69.427,73.944,69.427z"/>
		<path fill="#808080" d="M23.083,64.238c-0.164,0-0.317-0.104-0.374-0.268c-0.07-0.206,0.04-0.43,0.246-0.5
			c1.354-0.462,2.866-0.972,4.23-1.401c0.715-0.227,1.434-0.444,2.157-0.648c0.715-0.201,1.431-0.388,2.154-0.556
			c1.473-0.346,2.959-0.609,4.417-0.784c2.982-0.358,5.977-0.357,8.963,0c1.457,0.175,2.943,0.438,4.419,0.784
			c0.723,0.169,1.44,0.355,2.153,0.556c0.723,0.204,1.441,0.422,2.157,0.648c1.361,0.43,2.877,0.939,4.229,1.401
			c0.206,0.07,0.315,0.295,0.245,0.501s-0.291,0.315-0.501,0.245c-1.346-0.46-2.854-0.968-4.211-1.396
			c-0.708-0.223-1.419-0.438-2.134-0.641c-0.701-0.198-1.407-0.381-2.118-0.548c-1.447-0.339-2.905-0.598-4.333-0.769
			c-2.923-0.35-5.854-0.35-8.775,0c-1.428,0.171-2.885,0.43-4.331,0.769c-0.711,0.166-1.416,0.351-2.119,0.548
			c-0.714,0.202-1.425,0.416-2.133,0.641c-1.359,0.428-2.866,0.936-4.213,1.396C23.168,64.231,23.125,64.238,23.083,64.238z"/>
		<path fill="#808080" d="M6.845,69.427c-0.979,0-1.873-0.125-2.659-0.37c-1.036-0.324-1.887-0.861-2.528-1.599
			c-0.143-0.164-0.126-0.413,0.038-0.557c0.163-0.141,0.414-0.126,0.557,0.039c0.544,0.624,1.274,1.083,2.169,1.362
			c0.771,0.242,1.661,0.355,2.656,0.332c0.852-0.018,1.765-0.133,2.714-0.343c0.838-0.184,1.705-0.438,2.649-0.779
			c0.875-0.314,1.729-0.667,2.599-1.031l0.437-0.183c0.738-0.309,1.383-0.578,2.171-0.892c1.768-0.704,3.4-1.283,5.307-1.937
			c0.208-0.07,0.43,0.038,0.501,0.245c0.071,0.206-0.039,0.431-0.245,0.501c-1.896,0.65-3.519,1.226-5.271,1.923
			c-0.784,0.313-1.425,0.58-2.158,0.888l-0.438,0.183c-0.879,0.368-1.743,0.725-2.636,1.045c-0.977,0.353-1.875,0.616-2.747,0.809
			c-0.999,0.22-1.964,0.342-2.867,0.36C7.011,69.426,6.927,69.427,6.845,69.427z"/>
		<path fill="#808080" d="M1.955,67.594c-0.11,0-0.22-0.046-0.297-0.136c-0.552-0.634-0.952-1.405-1.221-2.358
			c-0.224-0.783-0.359-1.701-0.412-2.804c-0.037-0.775-0.033-1.646,0.014-2.742c0.035-0.854,0.089-1.708,0.158-2.561
			c0.169-2.09,0.393-3.709,0.725-5.25c0.37-1.711,0.894-3.421,1.557-5.081c0.668-1.681,1.444-3.236,2.37-4.756
			c0.451-0.738,0.943-1.476,1.465-2.194c0.522-0.716,1.081-1.423,1.659-2.103c2.138-2.515,4.694-4.847,7.815-7.126
			c0.176-0.128,0.423-0.089,0.551,0.085c0.129,0.176,0.09,0.423-0.085,0.551c-3.071,2.243-5.583,4.533-7.68,7.001
			c-0.566,0.665-1.111,1.356-1.622,2.056c-0.509,0.7-0.99,1.421-1.429,2.141c-0.903,1.48-1.659,2.998-2.311,4.637
			c-0.647,1.62-1.158,3.287-1.518,4.955c-0.325,1.506-0.544,3.094-0.71,5.147c-0.068,0.842-0.121,1.686-0.156,2.53
			c-0.045,1.071-0.049,1.921-0.014,2.672c0.05,1.041,0.175,1.899,0.383,2.625c0.237,0.84,0.583,1.512,1.057,2.057
			c0.143,0.164,0.126,0.413-0.039,0.557C2.139,67.562,2.047,67.594,1.955,67.594z"/>
		<path fill="#808080" d="M33.7,20.333c-0.077,0-0.155-0.022-0.223-0.069l-10.993-7.551c-0.18-0.124-0.226-0.369-0.102-0.548
			c0.123-0.18,0.368-0.227,0.548-0.102l10.993,7.551c0.18,0.124,0.226,0.369,0.102,0.548C33.949,20.274,33.826,20.333,33.7,20.333z"
			/>
		<path fill="#808080" d="M20.936,45.701c-0.061,0-0.123-0.015-0.181-0.044L7.587,38.825c-0.193-0.1-0.269-0.338-0.168-0.532
			c0.1-0.193,0.338-0.27,0.532-0.168l13.168,6.832c0.193,0.101,0.269,0.339,0.168,0.532C21.216,45.624,21.079,45.701,20.936,45.701z
			"/>
		<path fill="#808080" d="M15.307,51.937c-0.056,0-0.114-0.012-0.168-0.038L3.083,46.196c-0.197-0.093-0.281-0.328-0.188-0.525
			c0.094-0.196,0.33-0.282,0.525-0.188l12.057,5.702c0.197,0.093,0.281,0.328,0.188,0.525
			C15.597,51.854,15.455,51.937,15.307,51.937z"/>
		<path fill="#808080" d="M17.836,48.66c-0.059,0-0.119-0.013-0.175-0.041L5.077,42.366c-0.195-0.097-0.274-0.334-0.178-0.529
			c0.097-0.195,0.333-0.275,0.529-0.178l12.584,6.253c0.195,0.097,0.274,0.334,0.178,0.529C18.121,48.58,17.981,48.66,17.836,48.66z
			"/>
		<path fill="#808080" d="M40.677,15.439c-0.082,0-0.166-0.026-0.236-0.079l-11.91-8.938c-0.174-0.131-0.209-0.378-0.079-0.552
			c0.131-0.174,0.378-0.209,0.552-0.079l11.91,8.938c0.174,0.131,0.209,0.378,0.079,0.552
			C40.916,15.385,40.797,15.439,40.677,15.439z"/>
		<path fill="#808080" d="M38.274,74.371c-0.001,0-0.002,0-0.003,0c-0.218-0.002-0.393-0.18-0.391-0.397l0.119-13.72
			c0.002-0.216,0.178-0.391,0.395-0.391c0.001,0,0.002,0,0.003,0c0.218,0.002,0.393,0.18,0.391,0.398l-0.119,13.718
			C38.667,74.196,38.491,74.371,38.274,74.371z"/>
		<path fill="#808080" d="M29.675,76.777c-0.006,0-0.012,0-0.018,0c-0.218-0.01-0.387-0.194-0.377-0.412l0.652-14.82
			c0.01-0.218,0.181-0.362,0.412-0.377c0.217,0.01,0.386,0.194,0.376,0.412L30.069,76.4C30.06,76.612,29.885,76.777,29.675,76.777z"
			/>
		<path fill="#808080" d="M25.346,77.188c-0.008,0-0.017,0-0.025-0.001c-0.218-0.014-0.383-0.2-0.369-0.418l0.875-14.022
			c0.013-0.217,0.204-0.393,0.418-0.369c0.218,0.014,0.383,0.201,0.369,0.418l-0.875,14.022
			C25.727,77.027,25.553,77.188,25.346,77.188z"/>
		<path fill="#808080" d="M12.521,74.835c-0.017,0-0.035-0.001-0.052-0.003c-0.216-0.028-0.368-0.227-0.34-0.443l1.939-14.764
			c0.028-0.216,0.235-0.361,0.442-0.34c0.216,0.028,0.368,0.227,0.34,0.443l-1.939,14.764C12.886,74.69,12.716,74.835,12.521,74.835
			z"/>
		<path fill="#808080" d="M16.748,76.22c-0.014,0-0.027-0.001-0.042-0.002c-0.217-0.022-0.374-0.217-0.352-0.434l1.509-14.474
			c0.023-0.218,0.21-0.372,0.434-0.352c0.217,0.022,0.374,0.217,0.352,0.434L17.14,75.866C17.118,76.069,16.947,76.22,16.748,76.22z
			"/>
		<path fill="#808080" d="M31.086,28.366c-0.073,0-0.147-0.021-0.213-0.063l-12.464-8.044c-0.183-0.118-0.236-0.362-0.118-0.545
			s0.362-0.236,0.545-0.118l12.464,8.044c0.183,0.118,0.236,0.362,0.118,0.545C31.343,28.303,31.216,28.366,31.086,28.366z"/>
		<path fill="#808080" d="M29.754,32.321c-0.071,0-0.144-0.02-0.209-0.06l-12.475-7.817c-0.185-0.116-0.241-0.359-0.125-0.544
			c0.116-0.184,0.359-0.241,0.544-0.125l12.475,7.817c0.185,0.116,0.241,0.359,0.125,0.544
			C30.014,32.255,29.886,32.321,29.754,32.321z"/>
		<path fill="#808080" d="M54.708,39.427c-0.137,0-0.27-0.071-0.342-0.198c-0.108-0.189-0.044-0.43,0.146-0.539l11.899-6.831
			c0.188-0.107,0.431-0.043,0.538,0.146c0.108,0.189,0.044,0.43-0.146,0.539l-11.899,6.83C54.843,39.41,54.775,39.427,54.708,39.427
			z"/>
		<path fill="#808080" d="M65.482,51.937c-0.147,0-0.289-0.083-0.356-0.226c-0.094-0.197-0.009-0.433,0.188-0.525l12.056-5.702
			c0.196-0.095,0.433-0.01,0.525,0.188c0.094,0.197,0.009,0.433-0.188,0.525l-12.056,5.702
			C65.597,51.925,65.539,51.937,65.482,51.937z"/>
		<path fill="#808080" d="M28.094,36.003c-0.069,0-0.14-0.018-0.203-0.057l-11.751-7.08c-0.187-0.112-0.247-0.354-0.134-0.542
			c0.112-0.187,0.354-0.247,0.542-0.134l11.751,7.08c0.187,0.112,0.247,0.355,0.134,0.542
			C28.358,35.935,28.228,36.003,28.094,36.003z"/>
		<path fill="#808080" d="M62.954,48.66c-0.145,0-0.284-0.08-0.354-0.219c-0.097-0.195-0.018-0.433,0.178-0.529l12.583-6.253
			c0.193-0.095,0.432-0.019,0.529,0.178c0.097,0.195,0.018,0.432-0.178,0.529L63.13,48.619C63.073,48.647,63.014,48.66,62.954,48.66
			z"/>
		<path fill="#808080" d="M66.154,60.391c-0.154,0-0.302-0.092-0.364-0.243c-0.084-0.201,0.012-0.433,0.213-0.516l13.757-5.7
			c0.2-0.083,0.433,0.012,0.516,0.213c0.084,0.201-0.012,0.433-0.213,0.516l-13.757,5.7C66.256,60.381,66.205,60.391,66.154,60.391z
			"/>
		<path fill="#808080" d="M23.696,42.637c-0.063,0-0.128-0.016-0.188-0.048l-12.93-7.04c-0.191-0.104-0.262-0.344-0.158-0.535
			c0.104-0.192,0.344-0.262,0.535-0.158l12.93,7.04c0.191,0.104,0.262,0.344,0.158,0.535C23.971,42.563,23.836,42.637,23.696,42.637
			z"/>
		<path fill="#808080" d="M26.081,39.427c-0.066,0-0.134-0.017-0.196-0.053l-11.898-6.83c-0.189-0.108-0.254-0.35-0.146-0.539
			c0.108-0.188,0.348-0.254,0.539-0.146l11.898,6.831c0.189,0.108,0.254,0.35,0.146,0.539C26.35,39.355,26.217,39.427,26.081,39.427
			z"/>
		<path fill="#808080" d="M68.269,74.835c-0.194,0-0.364-0.145-0.391-0.343l-1.94-14.764c-0.028-0.217,0.124-0.415,0.34-0.443
			c0.209-0.027,0.414,0.124,0.443,0.34l1.94,14.764c0.028,0.217-0.124,0.414-0.34,0.443C68.304,74.834,68.286,74.835,68.269,74.835z
			"/>
		<path fill="#808080" d="M49.702,28.366c-0.129,0-0.256-0.063-0.331-0.181c-0.118-0.183-0.066-0.427,0.117-0.545l12.466-8.044
			c0.183-0.117,0.427-0.067,0.545,0.118c0.118,0.183,0.066,0.427-0.117,0.545l-12.466,8.044
			C49.85,28.346,49.775,28.366,49.702,28.366z"/>
		<path fill="#808080" d="M47.09,20.333c-0.125,0-0.249-0.06-0.325-0.171c-0.123-0.18-0.078-0.425,0.102-0.549l10.992-7.551
			c0.179-0.123,0.425-0.079,0.549,0.102c0.123,0.18,0.078,0.425-0.102,0.549l-10.992,7.551
			C47.245,20.311,47.167,20.333,47.09,20.333z"/>
		<path fill="#808080" d="M51.036,32.321c-0.131,0-0.26-0.065-0.334-0.185c-0.116-0.185-0.061-0.428,0.124-0.544L63.3,23.774
			c0.185-0.114,0.429-0.061,0.544,0.125c0.116,0.185,0.061,0.428-0.124,0.544l-12.474,7.817
			C51.181,32.301,51.108,32.321,51.036,32.321z"/>
		<path fill="#808080" d="M57.094,42.637c-0.14,0-0.275-0.074-0.347-0.206c-0.104-0.191-0.033-0.431,0.158-0.535l12.93-7.04
			c0.188-0.102,0.431-0.034,0.535,0.158c0.104,0.191,0.033,0.431-0.158,0.535l-12.93,7.04
			C57.223,42.621,57.158,42.637,57.094,42.637z"/>
		<path fill="#808080" d="M48.667,24.179c-0.127,0-0.253-0.062-0.329-0.176c-0.12-0.182-0.07-0.426,0.111-0.547l11.707-7.77
			c0.178-0.12,0.426-0.071,0.547,0.11c0.12,0.182,0.07,0.426-0.111,0.547l-11.707,7.77C48.818,24.157,48.742,24.179,48.667,24.179z"
			/>
		<path fill="#808080" d="M52.694,36.003c-0.134,0-0.264-0.068-0.338-0.191c-0.112-0.187-0.053-0.429,0.135-0.542l11.753-7.08
			c0.186-0.112,0.429-0.053,0.541,0.134c0.112,0.187,0.053,0.429-0.135,0.542l-11.753,7.08
			C52.834,35.985,52.764,36.003,52.694,36.003z"/>
		<path fill="#808080" d="M40.114,15.439c-0.12,0-0.239-0.054-0.316-0.158c-0.131-0.174-0.096-0.421,0.079-0.552l11.91-8.938
			c0.174-0.13,0.422-0.097,0.553,0.079c0.131,0.174,0.096,0.421-0.078,0.552L40.35,15.36C40.279,15.413,40.196,15.439,40.114,15.439
			z"/>
		<path fill="#808080" d="M43.451,17.937c-0.123,0-0.244-0.058-0.321-0.165c-0.126-0.177-0.085-0.424,0.092-0.551l11.843-8.459
			c0.176-0.125,0.423-0.085,0.551,0.092c0.126,0.177,0.085,0.424-0.092,0.551l-11.843,8.459
			C43.611,17.913,43.531,17.937,43.451,17.937z"/>
		<path fill="#808080" d="M59.854,45.701c-0.143,0-0.28-0.077-0.351-0.213c-0.1-0.193-0.024-0.432,0.169-0.532l13.168-6.832
			c0.19-0.1,0.432-0.025,0.532,0.168c0.1,0.193,0.024,0.432-0.169,0.532l-13.168,6.833C59.979,45.687,59.916,45.701,59.854,45.701z"
			/>
		<path fill="#808080" d="M65.706,56.268c-0.15,0-0.295-0.087-0.36-0.233c-0.089-0.199,0.001-0.433,0.199-0.521l13.291-5.93
			c0.199-0.09,0.433,0,0.521,0.199s-0.001,0.433-0.199,0.521l-13.291,5.93C65.814,56.257,65.76,56.268,65.706,56.268z"/>
		<path fill="#808080" d="M42.516,74.371c-0.217,0-0.393-0.175-0.395-0.392l-0.118-13.719c-0.002-0.218,0.173-0.396,0.392-0.397
			c0.001,0,0.002,0,0.003,0c0.217,0,0.393,0.175,0.395,0.392l0.118,13.719c0.002,0.218-0.173,0.396-0.392,0.397
			C42.518,74.371,42.517,74.371,42.516,74.371z"/>
		<path fill="#808080" d="M64.043,76.22c-0.2,0-0.371-0.15-0.393-0.354l-1.509-14.474c-0.022-0.217,0.135-0.411,0.352-0.434
			c0.212-0.015,0.41,0.135,0.434,0.352l1.509,14.474c0.022,0.217-0.135,0.411-0.352,0.434C64.07,76.219,64.056,76.22,64.043,76.22z"
			/>
		<path fill="#808080" d="M55.445,77.188c-0.207,0-0.381-0.161-0.394-0.37l-0.876-14.022c-0.014-0.218,0.151-0.404,0.369-0.418
			c0.217-0.019,0.405,0.152,0.418,0.369l0.876,14.022c0.014,0.218-0.151,0.404-0.369,0.418
			C55.462,77.188,55.453,77.188,55.445,77.188z"/>
		<path fill="#808080" d="M21.03,77.008c-0.011,0-0.022,0-0.033-0.001c-0.217-0.019-0.379-0.209-0.361-0.426l1.091-13.291
			c0.018-0.217,0.217-0.379,0.425-0.361c0.217,0.019,0.379,0.209,0.361,0.426l-1.091,13.291
			C21.406,76.852,21.233,77.008,21.03,77.008z"/>
		<path fill="#808080" d="M37.337,17.937c-0.079,0-0.159-0.024-0.229-0.073L25.266,9.405c-0.177-0.127-0.218-0.374-0.092-0.551
			c0.127-0.176,0.373-0.217,0.551-0.092l11.843,8.459c0.177,0.127,0.218,0.374,0.092,0.551
			C37.582,17.879,37.46,17.937,37.337,17.937z"/>
		<path fill="#808080" d="M15.083,56.268c-0.054,0-0.108-0.011-0.161-0.034l-13.29-5.93c-0.199-0.089-0.289-0.322-0.2-0.521
			c0.088-0.198,0.323-0.288,0.521-0.199l13.29,5.93c0.199,0.089,0.289,0.322,0.2,0.521C15.378,56.181,15.234,56.268,15.083,56.268z"
			/>
		<path fill="#808080" d="M14.636,60.391c-0.05,0-0.102-0.01-0.151-0.03l-13.756-5.7c-0.202-0.083-0.297-0.314-0.213-0.516
			c0.083-0.201,0.314-0.296,0.515-0.213l13.756,5.7c0.202,0.083,0.297,0.314,0.213,0.516C14.938,60.299,14.791,60.391,14.636,60.391
			z"/>
		<path fill="#808080" d="M51.114,76.777c-0.21,0-0.385-0.165-0.395-0.377l-0.65-14.82c-0.009-0.218,0.159-0.402,0.377-0.412
			c0.211,0.004,0.402,0.159,0.412,0.377l0.65,14.82c0.009,0.218-0.159,0.402-0.377,0.412C51.126,76.777,51.12,76.777,51.114,76.777z
			"/>
		<path fill="#808080" d="M59.762,77.008c-0.204,0-0.376-0.156-0.394-0.362l-1.091-13.291c-0.018-0.218,0.145-0.408,0.361-0.426
			c0.22-0.015,0.408,0.145,0.426,0.361l1.091,13.291c0.018,0.217-0.145,0.407-0.361,0.426
			C59.783,77.008,59.772,77.008,59.762,77.008z"/>
		<path fill="#808080" d="M46.798,75.814c-0.213,0-0.389-0.17-0.395-0.384L46.02,60.714c-0.006-0.219,0.166-0.399,0.384-0.405
			c0.004,0,0.008,0,0.011,0c0.213,0,0.389,0.17,0.395,0.384l0.384,14.717c0.006,0.219-0.166,0.399-0.384,0.405
			C46.805,75.814,46.801,75.814,46.798,75.814z"/>
		<path fill="#808080" d="M33.993,75.814c-0.003,0-0.007,0-0.01,0c-0.218-0.006-0.39-0.188-0.384-0.405l0.384-14.717
			c0.006-0.217,0.21-0.372,0.405-0.384c0.218,0.006,0.39,0.187,0.384,0.405l-0.384,14.717
			C34.382,75.645,34.207,75.814,33.993,75.814z"/>
		<path fill="#808080" d="M32.124,24.179c-0.075,0-0.15-0.021-0.218-0.066l-11.707-7.77c-0.182-0.121-0.231-0.365-0.11-0.547
			c0.12-0.182,0.364-0.231,0.547-0.11l11.707,7.77c0.182,0.12,0.231,0.365,0.11,0.547C32.377,24.117,32.251,24.179,32.124,24.179z"
			/>
	</g>
</g>
</svg>
