<?xml version="1.0" encoding="utf-8"?>
<!-- Generator: Adobe Illustrator 16.0.0, SVG Export Plug-In . SVG Version: 6.00 Build 0)  -->
<!DOCTYPE svg PUBLIC "-//W3C//DTD SVG 1.1//EN" "http://www.w3.org/Graphics/SVG/1.1/DTD/svg11.dtd">
<svg version="1.1" id="圖層_1" xmlns="http://www.w3.org/2000/svg" xmlns:xlink="http://www.w3.org/1999/xlink" x="0px" y="0px"
	 width="582.482px" height="52.561px" viewBox="0 0 582.482 52.561" enable-background="new 0 0 582.482 52.561"
	 xml:space="preserve">
<g>
	<path d="M505.188,10.135c-7.998,0-13.209,6.102-13.209,16.037c0,9.883,5.211,16.254,13.209,16.254
		c7.938,0,13.209-6.371,13.209-16.254C518.397,16.236,513.126,10.135,505.188,10.135z"/>
	<path d="M212.067,10.135c-7.998,0-13.209,6.102-13.209,16.037c0,9.883,5.211,16.254,13.209,16.254
		c7.938,0,13.209-6.371,13.209-16.254C225.276,16.236,220.005,10.135,212.067,10.135z"/>
	<path d="M404.653,10.566c-1.395,4.643-2.848,8.91-4.424,13.393l-2.182,6.047h13.451l-2.119-6.047
		c-1.637-4.482-3.031-8.803-4.484-13.393H404.653z"/>
	<path d="M266.606,16.83c0-4.645-3.575-6.373-10.482-6.373h-6.847v12.906h6.604C263.517,23.363,266.606,20.826,266.606,16.83z"/>
	<path d="M0,0v52.561h582.482V0H0z M46.629,10.729H33.177v35.369h-5.635V10.729H14.091V6.516h32.538V10.729z M89.533,46.098h-5.575
		V27.414H63.235v18.684h-5.635V6.516h5.635v16.578h20.723V6.516h5.575V46.098z M131.045,46.098h-26.298V6.516h25.631v4.213h-19.995
		v12.42h16.845v4.266h-16.845v14.418h20.662V46.098z M180.493,46.098h-5.271V24.174c0-3.402,0.424-8.207,0.727-11.664h-0.242
		l-3.515,9.018l-8.422,20.574h-3.757l-8.423-20.574l-3.514-9.018h-0.243c0.243,3.457,0.667,8.262,0.667,11.664v21.924h-5.09V6.516
		h6.786l8.544,21.168c1.03,2.754,2.06,5.508,3.15,8.262h0.303c1.03-2.754,2-5.508,3.03-8.262l8.482-21.168h6.787V46.098z
		 M212.067,46.801c-11.148,0-18.966-7.939-18.966-20.629S200.919,5.76,212.067,5.76c11.149,0,18.966,7.723,18.966,20.412
		S223.217,46.801,212.067,46.801z M257.82,46.098h-14.179V6.516h13.209c9.028,0,15.27,2.699,15.27,9.666
		c0,3.941-2.363,7.398-6.544,8.586v0.27c5.332,0.92,9.089,4.051,9.089,9.451C274.665,42.264,267.758,46.098,257.82,46.098z
		 M292.121,46.098h-5.635V6.516h5.635V46.098z M339.021,29.736c0,12.744-6.906,17.064-15.996,17.064
		c-9.027,0-15.936-4.32-15.936-17.064V6.516h5.635v23.383c0,9.559,4.545,12.527,10.301,12.527c5.938,0,10.604-2.969,10.604-12.527
		V6.516h5.393V29.736z M365.688,46.801c-6.303,0-11.695-2.268-15.572-5.887l3.332-3.402c3.211,2.971,7.695,4.914,12.301,4.914
		c5.816,0,9.332-2.592,9.332-6.48c0-4.049-3.213-5.346-7.393-7.02l-6.424-2.484c-4.119-1.564-9.027-4.373-9.027-10.152
		c0-6.102,5.938-10.529,13.996-10.529c5.271,0,9.938,1.998,13.088,4.914l-2.969,3.186c-2.727-2.268-5.998-3.725-10.119-3.725
		c-5.029,0-8.301,2.268-8.301,5.832c0,3.834,3.877,5.291,7.332,6.588l6.361,2.43c5.15,1.998,9.15,4.697,9.15,10.584
		C380.776,41.832,374.958,46.801,365.688,46.801z M417.136,46.098l-4.242-12.096h-16.238l-4.303,12.096h-5.695l15.088-39.582h6.24
		l15.088,39.582H417.136z M457.011,10.729h-13.453v35.369h-5.635V10.729h-13.451V6.516h32.539V10.729z M473.616,46.098h-5.635V6.516
		h5.635V46.098z M505.188,46.801c-11.148,0-18.965-7.939-18.965-20.629S494.04,5.76,505.188,5.76s18.965,7.723,18.965,20.412
		S516.337,46.801,505.188,46.801z M568.392,46.098h-5.756l-16.18-25.002l-4.787-8.154h-0.242c0.242,3.996,0.668,8.209,0.668,12.367
		v20.789h-5.332V6.516h5.816l16.178,24.949l4.727,8.154h0.303c-0.303-3.996-0.727-8.426-0.727-12.529V6.516h5.332V46.098z"/>
	<path d="M257.033,27.197h-7.756v14.904h7.756c7.634,0,12.118-2.43,12.118-7.775C269.151,29.412,264.789,27.197,257.033,27.197z"/>
</g>
</svg>
